Black Hawk Down (2001)

Director: Ridley Scott

Black Hawk Down is a 2001 American war film co-produced and directed by Ridley Scott and based on the book of the same name by Mark Bowden that depicts the Battle of Mogadishu, a raid integral to the United States' effort to capture Somali warlord Mohamed Farrah Aidid.

The movie features Josh Hartnett, Tom Sizemore, Ewan McGregor, Jeremy Piven, Eric Bana, Ewen Bremner, William Fichtner, Tom Hardy, Sam Shepard, Jason Isaacs, Glenn Morshower and Orlando Bloom. The film won Academy Awards for Best Film Editing and Best Sound at the 74th Academy Awards.

A quickly forgotten chapter in United States military history is relived in this harrowing war drama from director Ridley Scott, based on a series of Philadelphia Inquirer articles and subsequent book by reporter Mark Bowden. On October 3rd, 1993, an elite team of more than 100 Delta Force soldiers and Army Rangers, part of a larger United Nations peacekeeping force, are dropped into civil war-torn Mogadishu, Somalia, in an effort to kidnap two of local crime lord Mohamed Farah Aidid's top lieutenants. Among the team: Staff Sgt. Matt Eversmann (Josh Hartnett), Ranger Lt. Col. Danny McKnight (Tom Sizemore), the resourceful Delta Sgt. First Class Jeff Sanderson (William Fichtner), and Ranger Spec. Grimes (Ewan McGregor), a desk-bound clerk getting his first taste of live combat. When two of the mission's Black Hawk helicopters are shot down by enemy forces, the Americans -- committed to recovering every man, dead or alive -- stay in the area too long and are quickly surrounded. The ensuing firefight is a merciless 15-hour ordeal and the longest ground battle involving American soldiers since the Vietnam War. In the end, 70 soldiers are injured and 18 are dead, along with hundreds of Somalians. Black Hawk Down was voted one of the top ten films of the year by the National Board of Review prior to its limited Oscar-qualifying release. On the basis of his work in this film, co-star Eric Bana, a relatively unknown Australian actor playing Delta Sgt. First Class "Hoot" Gibson, won the lead in director Ang Lee's version of The Hulk (2003). 

Media Info:
General
Complete name                    : J:\Seeding\Black Hawk Down (2001)[DVDRip][big_dad_e™]\Black Hawk Down (2001)[DVDRip][big_dad_e™].avi
Format                           : AVI
Format/Info                      : Audio Video Interleave
Format profile                   : OpenDML
File size                        : 1.39 GiB
Duration                         : 2h 24mn
Overall bit rate                 : 1 383 Kbps
Movie name                       : BLACK_HAWK_DOWN.Title1.DVDRip
Writing application              : Lavf52.78.4
Original source form/Name        : BLACK_HAWK_DOWN

Video
ID                               : 0
Format                           : MPEG-4 Visual
Format profile                   : Advanced Simple@L5
Format settings, BVOP            : 2
Format settings, QPel            : No
Format settings, GMC             : No warppoints
Format settings, Matrix          : Default (H.263)
Muxing mode                      : Packed bitstream
Codec ID                         : XVID
Codec ID/Hint                    : XviD
Duration                         : 2h 24mn
Bit rate                         : 325 Kbps
Width                            : 720 pixels
Height                           : 304 pixels
Display aspect ratio             : 2.35:1
Frame rate                       : 23.976 fps
Color space                      : YUV
Chroma subsampling               : 4:2:0
Bit depth                        : 8 bits
Scan type                        : Progressive
Compression mode                 : Lossy
Bits/(Pixel*Frame)               : 0.062
Stream size                      : 336 MiB (24%)
Writing library                  : XviD 1.2.1 (UTC 2008-12-04)

Audio
ID                               : 1
Format                           : MPEG Audio
Format version                   : Version 1
Format profile                   : Layer 3
Mode                             : Joint stereo
Codec ID                         : 55
Codec ID/Hint                    : MP3
Duration                         : 2h 24mn
Bit rate mode                    : Constant
Bit rate                         : 320 Kbps
Channel(s)                       : 2 channels
Sampling rate                    : 48.0 KHz
Compression mode                 : Lossy
Stream size                      : 109 MiB (8%)
Alignment                        : Aligned on interleaves
Interleave, duration             : 27 ms (0.64 video frame)
Writing library                  : LAME3.98.4

File Scan:
Malwarebytes' Anti-Malware 1.50.1.1100
www.malwarebytes.org

Database version: 6321
4/9/2011 6:11:29 PM
mbam-log-2011-04-09 (18-11-29).txt

Scan type: Quick scan
Objects scanned: 5
Time elapsed: 12 second(s)

Memory Processes Infected: 0
Memory Modules Infected: 0
Registry Keys Infected: 0
Registry Values Infected: 0
Registry Data Items Infected: 0
Folders Infected: 0
Files Infected: 0

Memory Processes Infected:
(No malicious items detected)

Memory Modules Infected:
(No malicious items detected)

Registry Keys Infected:
(No malicious items detected)

Registry Values Infected:
(No malicious items detected)

Registry Data Items Infected:
(No malicious items detected)

Folders Infected:
(No malicious items detected)

Files Infected:
(No malicious items detected)

When using TPB please read these important notes:
  
01- Anti-malware apps may warn about keygens, patches, cracks, etc., because of 
    their capabilities, (generating codes, etc.). Sometimes they're added to 
    the virus/spyware database and will be detected as malware. If you don't trust
    the keygens, patches, cracks, etc., don't use them. 
    
02- Before running .exe-files, keygens, patches, cracks, etc., always check first 
    if they can be unpacked. Often some third party added a virus to the 
    original file, repacked it and uploaded it again.

03- Letting anti-malware apps send scan results to their companies can cause
    keygens, patches, cracks, etc., to be added to their virus-database.

04- Firewalls which are set to automatically determine connections will allow 
    apps & malware!. Avoid this by manually configuring your firewall.

05- Usually (new) torrents with many downloads and seeders in a brief period is
    suspicious! Torrents with the Skull & Crossbones icon are trusted.

06- Some people use multiple accounts and post fake comments 
    and/or files trying to spread confusion. They seldom seriously
    comment or have any torrents, or a just a few to look passable.

07- Clicking on unknown links can cause malware to be installed on your machine.
  
08- In general often there are more fake and negative comments than reliable and
    positive comments.

09- In some countries uploading/downloading copyright protected material is 
    forbidden, but showing some appreciation to reliable up-loaders is not.

10- Posting fake and negative comments or fake/infected uploads on TPB can result
    in getting banned from TPB!

Requests?  Find me on SuprBay. http://forum.suprbay.org
 

For reporting bad or suspicious torrents:  
http://forum.suprbay.org/forumdisplay.php?fid=29

For more of my torrents: 
https://thepiratebay.org/user/big_dad_e/  (Secured)

All torrents scanned with:
Norton Anti-virus
Malwarebytes' Anti-malware
 
http://www.pirate-party.us/

ALWAYS SEED & THANKS SEEDERS!